<?xml version="1.0" encoding="UTF-8" standalone="no"?>
<!-- Created with Inkscape (http://www.inkscape.org/) -->

<svg
   xmlns:dc="http://purl.org/dc/elements/1.1/"
   xmlns:cc="http://creativecommons.org/ns#"
   xmlns:rdf="http://www.w3.org/1999/02/22-rdf-syntax-ns#"
   xmlns:svg="http://www.w3.org/2000/svg"
   xmlns="http://www.w3.org/2000/svg"
   xmlns:sodipodi="http://sodipodi.sourceforge.net/DTD/sodipodi-0.dtd"
   xmlns:inkscape="http://www.inkscape.org/namespaces/inkscape"
   width="744.09448819"
   height="1052.3622047"
   id="svg2"
   version="1.1"
   inkscape:version="0.48.4 r9939"
   sodipodi:docname="New document 1">
  <defs
     id="defs4" />
  <sodipodi:namedview
     id="base"
     pagecolor="#ffffff"
     bordercolor="#666666"
     borderopacity="1.0"
     inkscape:pageopacity="0.0"
     inkscape:pageshadow="2"
     inkscape:zoom="5.6568542"
     inkscape:cx="52.521253"
     inkscape:cy="48.64642"
     inkscape:document-units="px"
     inkscape:current-layer="layer1"
     showgrid="false"
     inkscape:window-width="1680"
     inkscape:window-height="974"
     inkscape:window-x="0"
     inkscape:window-y="24"
     inkscape:window-maximized="1" />
  <metadata
     id="metadata7">
    <rdf:RDF>
      <cc:Work
         rdf:about="">
        <dc:format>image/svg+xml</dc:format>
        <dc:type
           rdf:resource="http://purl.org/dc/dcmitype/StillImage" />
        <dc:title></dc:title>
      </cc:Work>
    </rdf:RDF>
  </metadata>
  <g
     inkscape:label="Layer 1"
     inkscape:groupmode="layer"
     id="layer1">
    <path
       sodipodi:type="arc"
       style="fill:#00ff00;fill-opacity:1;fill-rule:evenodd;stroke:none"
       id="path2985"
       sodipodi:cx="57.142857"
       sodipodi:cy="158.07646"
       sodipodi:rx="237.14285"
       sodipodi:ry="237.14285"
       d="m 294.28571,158.07646 a 237.14285,237.14285 0 1 1 -474.28571,0 237.14285,237.14285 0 1 1 474.28571,0 z"
       transform="matrix(0.14056222,0,0,0.14054956,25.301153,996.80763)" />
    <path
       sodipodi:type="arc"
       style="fill:#0000ff;fill-opacity:1;fill-rule:evenodd;stroke:none"
       id="path2985-3"
       sodipodi:cx="57.142857"
       sodipodi:cy="158.07646"
       sodipodi:rx="237.14285"
       sodipodi:ry="237.14285"
       d="m 294.28571,158.07646 a 237.14285,237.14285 0 1 1 -474.28571,0 237.14285,237.14285 0 1 1 474.28571,0 z"
       transform="matrix(0.14056222,0,0,0.14054956,58.634499,996.8143)" />
    <path
       sodipodi:type="arc"
       style="fill:#ff0000;fill-opacity:1;fill-rule:evenodd;stroke:none"
       id="path2985-3-6"
       sodipodi:cx="57.142857"
       sodipodi:cy="158.07646"
       sodipodi:rx="237.14285"
       sodipodi:ry="237.14285"
       d="m 294.28571,158.07646 a 237.14285,237.14285 0 1 1 -474.28571,0 237.14285,237.14285 0 1 1 474.28571,0 z"
       transform="matrix(0.14056222,0,0,0.14054956,41.969387,967.95032)" />
    <path
       sodipodi:type="arc"
       style="fill:#00ff00;fill-opacity:1;fill-rule:evenodd;stroke:none"
       id="path2985-1"
       sodipodi:cx="57.142857"
       sodipodi:cy="158.07646"
       sodipodi:rx="237.14285"
       sodipodi:ry="237.14285"
       d="m 294.28571,158.07646 a 237.14285,237.14285 0 1 1 -474.28571,0 237.14285,237.14285 0 1 1 474.28571,0 z"
       transform="matrix(0.14056222,0,0,0.14054956,25.301199,996.81428)" />
    <path
       sodipodi:type="arc"
       style="fill:#0000ff;fill-opacity:1;fill-rule:evenodd;stroke:none"
       id="path2985-3-2"
       sodipodi:cx="57.142857"
       sodipodi:cy="158.07646"
       sodipodi:rx="237.14285"
       sodipodi:ry="237.14285"
       d="m 294.28571,158.07646 a 237.14285,237.14285 0 1 1 -474.28571,0 237.14285,237.14285 0 1 1 474.28571,0 z"
       transform="matrix(0.14056222,0,0,0.14054956,58.63454,996.81428)" />
    <path
       sodipodi:type="arc"
       style="fill:#ff0000;fill-opacity:1;fill-rule:evenodd;stroke:none"
       id="path2985-3-6-7"
       sodipodi:cx="57.142857"
       sodipodi:cy="158.07646"
       sodipodi:rx="237.14285"
       sodipodi:ry="237.14285"
       d="m 294.28571,158.07646 a 237.14285,237.14285 0 1 1 -474.28571,0 237.14285,237.14285 0 1 1 474.28571,0 z"
       transform="matrix(0.14056222,0,0,0.14054956,41.969433,967.95032)" />
    <path
       sodipodi:type="arc"
       style="fill:#00ff00;fill-opacity:1;fill-rule:evenodd;stroke:none"
       id="path2985-0"
       sodipodi:cx="57.142857"
       sodipodi:cy="158.07646"
       sodipodi:rx="237.14285"
       sodipodi:ry="237.14285"
       d="m 294.28571,158.07646 a 237.14285,237.14285 0 1 1 -474.28571,0 237.14285,237.14285 0 1 1 474.28571,0 z"
       transform="matrix(0.14056222,0,0,0.14054956,25.301199,996.80761)" />
    <path
       sodipodi:type="arc"
       style="fill:#0000ff;fill-opacity:1;fill-rule:evenodd;stroke:none"
       id="path2985-3-9"
       sodipodi:cx="57.142857"
       sodipodi:cy="158.07646"
       sodipodi:rx="237.14285"
       sodipodi:ry="237.14285"
       d="m 294.28571,158.07646 a 237.14285,237.14285 0 1 1 -474.28571,0 237.14285,237.14285 0 1 1 474.28571,0 z"
       transform="matrix(0.14056222,0,0,0.14054956,58.634545,996.81428)" />
    <path
       sodipodi:type="arc"
       style="fill:#ff0000;fill-opacity:1;fill-rule:evenodd;stroke:none"
       id="path2985-3-6-3"
       sodipodi:cx="57.142857"
       sodipodi:cy="158.07646"
       sodipodi:rx="237.14285"
       sodipodi:ry="237.14285"
       d="m 294.28571,158.07646 a 237.14285,237.14285 0 1 1 -474.28571,0 237.14285,237.14285 0 1 1 474.28571,0 z"
       transform="matrix(0.14056222,0,0,0.14054956,41.969433,967.9503)" />
    <path
       style="fill:#ff00ff;fill-opacity:1;fill-rule:evenodd;stroke:none"
       d="M 66.65625 985.6875 C 48.246762 985.6875 33.34375 1000.6234 33.34375 1019.0312 C 38.247583 1021.8687 43.926823 1023.5 50 1023.5 C 68.399041 1023.5 83.326827 1008.5809 83.34375 990.1875 C 83.339128 990.18482 83.348373 990.15893 83.34375 990.15625 C 78.438693 987.3169 72.731663 985.6875 66.65625 985.6875 z "
       id="path2985-3-2-0" />
    <path
       style="fill:#00ffff;fill-opacity:1;fill-rule:evenodd;stroke:none"
       d="M 50 990.15625 C 40.034858 995.91876 33.34375 1006.693 33.34375 1019.0312 C 33.34375 1031.3695 40.034858 1042.1437 50 1047.9062 C 59.965142 1042.1437 66.65625 1031.3695 66.65625 1019.0312 C 66.65625 1006.693 59.965142 995.91876 50 990.15625 z "
       id="path2985-0-2" />
    <path
       style="fill:#ffff00;fill-opacity:1;fill-rule:evenodd;stroke:none"
       d="M 33.34375 985.6875 C 27.262611 985.6875 21.564437 987.34319 16.65625 990.1875 C 16.65625 1008.5953 31.590512 1023.5 50 1023.5 C 56.073177 1023.5 61.752417 1021.8687 66.65625 1019.0312 C 66.65625 1000.6234 51.753238 985.6875 33.34375 985.6875 z "
       id="path2985-0-8" />
    <path
       style="fill:#ffffff;fill-opacity:1;fill-rule:evenodd;stroke:none"
       d="M 50 990.15625 C 49.854758 990.24024 49.706341 990.32014 49.5625 990.40625 C 49.38073 990.51517 49.210748 990.63773 49.03125 990.75 C 48.742558 990.93034 48.438911 991.0924 48.15625 991.28125 C 48.112626 991.31046 48.074728 991.34559 48.03125 991.375 C 47.956066 991.42575 47.887244 991.47991 47.8125 991.53125 C 47.378278 991.83007 46.950259 992.15019 46.53125 992.46875 C 46.355428 992.60241 46.173054 992.73795 46 992.875 C 45.733147 993.08643 45.478884 993.3119 45.21875 993.53125 C 44.509584 994.12843 43.812956 994.7528 43.15625 995.40625 C 42.757892 995.80306 42.37799 996.20856 42 996.625 C 41.429562 997.25326 40.865405 997.89187 40.34375 998.5625 C 40.211164 998.73304 40.098074 998.92059 39.96875 999.09375 C 39.655975 999.51237 39.355718 999.94149 39.0625 1000.375 C 38.702595 1000.907 38.360654 1001.4467 38.03125 1002 C 37.867115 1002.2758 37.718825 1002.5629 37.5625 1002.8438 C 37.458302 1003.0309 37.350678 1003.2169 37.25 1003.4062 C 37.105954 1003.6772 36.949222 1003.9434 36.8125 1004.2188 C 36.750532 1004.3435 36.685446 1004.4681 36.625 1004.5938 C 36.402636 1005.0561 36.201359 1005.5261 36 1006 C 35.355951 1007.5158 34.822716 1009.0666 34.40625 1010.6875 C 34.270279 1011.2154 34.141696 1011.7436 34.03125 1012.2812 C 34.029217 1012.2912 34.033274 1012.3026 34.03125 1012.3125 C 33.721706 1013.8265 33.503242 1015.3876 33.40625 1016.9688 C 33.364665 1017.6509 33.34375 1018.3387 33.34375 1019.0312 C 34.489635 1019.6943 35.680554 1020.2866 36.90625 1020.8125 C 36.948665 1020.8306 36.988745 1020.857 37.03125 1020.875 C 37.281189 1020.981 37.528263 1021.0875 37.78125 1021.1875 C 38.173903 1021.342 38.568981 1021.4851 38.96875 1021.625 C 39.124102 1021.6796 39.281109 1021.7289 39.4375 1021.7812 C 39.654332 1021.8536 39.874963 1021.932 40.09375 1022 C 40.216347 1022.0382 40.345551 1022.0569 40.46875 1022.0938 C 40.86841 1022.2127 41.250466 1022.3332 41.65625 1022.4375 C 42.188866 1022.5744 42.738699 1022.7016 43.28125 1022.8125 C 43.506178 1022.8585 43.742199 1022.8961 43.96875 1022.9375 C 44.483432 1023.032 45.008488 1023.117 45.53125 1023.1875 C 45.969871 1023.2464 46.399906 1023.3021 46.84375 1023.3438 C 47.238407 1023.3808 47.632722 1023.4143 48.03125 1023.4375 C 48.68565 1023.476 49.335673 1023.5 50 1023.5 C 50.664327 1023.5 51.31435 1023.476 51.96875 1023.4375 C 52.367055 1023.4143 52.761811 1023.3808 53.15625 1023.3438 C 53.594506 1023.3022 54.035698 1023.2459 54.46875 1023.1875 C 54.991512 1023.117 55.516568 1023.032 56.03125 1022.9375 C 56.25768 1022.896 56.49394 1022.8585 56.71875 1022.8125 C 57.261015 1022.7015 57.780157 1022.5745 58.3125 1022.4375 C 58.739783 1022.3276 59.173264 1022.22 59.59375 1022.0938 C 59.918579 1021.996 60.241919 1021.8886 60.5625 1021.7812 C 60.717304 1021.7296 60.877465 1021.6789 61.03125 1021.625 C 61.432429 1021.484 61.824711 1021.3433 62.21875 1021.1875 C 62.538496 1021.0615 62.841418 1020.9168 63.15625 1020.7812 C 63.704273 1020.5447 64.248711 1020.2958 64.78125 1020.0312 C 65.149585 1019.8483 65.514426 1019.6647 65.875 1019.4688 C 66.137862 1019.326 66.397711 1019.1808 66.65625 1019.0312 C 66.65625 1018.334 66.63587 1017.6554 66.59375 1016.9688 C 66.583525 1016.801 66.575194 1016.6358 66.5625 1016.4688 C 66.511966 1015.807 66.43231 1015.1504 66.34375 1014.5 C 66.256866 1013.8619 66.153669 1013.2198 66.03125 1012.5938 C 65.906722 1011.9566 65.753972 1011.3111 65.59375 1010.6875 C 65.459446 1010.1648 65.314913 1009.6687 65.15625 1009.1562 C 65.150359 1009.1372 65.162174 1009.1128 65.15625 1009.0938 C 64.996594 1008.5813 64.808363 1008.064 64.625 1007.5625 C 64.205842 1006.4181 63.724574 1005.3004 63.1875 1004.2188 C 63.0511 1003.9442 62.893677 1003.6765 62.75 1003.4062 C 62.649562 1003.2173 62.541446 1003.0305 62.4375 1002.8438 C 62.280724 1002.5622 62.133368 1002.2765 61.96875 1002 C 61.639656 1001.4471 61.297094 1000.9066 60.9375 1000.375 C 60.433546 999.63011 59.904673 998.88777 59.34375 998.1875 C 59.122576 997.91154 58.885931 997.64366 58.65625 997.375 C 58.179552 996.81723 57.69945 996.27499 57.1875 995.75 C 57.073184 995.63287 56.95977 995.5217 56.84375 995.40625 C 56.812715 995.37534 56.781156 995.34329 56.75 995.3125 C 56.314833 994.88291 55.864466 994.46777 55.40625 994.0625 C 55.201198 993.8808 54.990766 993.70792 54.78125 993.53125 C 54.52491 993.31539 54.262871 993.08318 54 992.875 C 53.825277 992.73656 53.646289 992.60373 53.46875 992.46875 C 53.043051 992.14514 52.628938 991.83449 52.1875 991.53125 C 51.786709 991.25543 51.381955 991.00845 50.96875 990.75 C 50.790358 990.63856 50.61814 990.51439 50.4375 990.40625 C 50.29482 990.32075 50.144056 990.23966 50 990.15625 z "
       id="path2985-3-2-0-2" />
  </g>
</svg>
